<?xml version="1.0" encoding="utf-8"?>
<!-- Generator: Adobe Illustrator 16.0.0, SVG Export Plug-In . SVG Version: 6.00 Build 0)  -->
<!DOCTYPE svg PUBLIC "-//W3C//DTD SVG 1.1 Tiny//EN" "http://www.w3.org/Graphics/SVG/1.1/DTD/svg11-tiny.dtd">
<svg version="1.1" baseProfile="tiny" id="Layer_1" xmlns="http://www.w3.org/2000/svg" xmlns:xlink="http://www.w3.org/1999/xlink"
	 x="0px" y="0px" width="73px" height="47px" viewBox="0 0 73 47" xml:space="preserve">
<g id="Shape_1123_copy_3">
	<path fill="#040000" d="M72.28,1.266c-0.445-0.267-0.998-0.275-1.451-0.023L51.812,11.758V1.475C51.812,0.659,51.155,0,50.346,0
		H1.465C0.655,0,0,0.659,0,1.475v44.051C0,46.341,0.655,47,1.465,47h48.881c0.81,0,1.466-0.659,1.466-1.475V35.242l19.018,10.515
		c0.453,0.253,1.006,0.244,1.451-0.022c0.446-0.266,0.72-0.748,0.72-1.27V2.534C73,2.013,72.727,1.53,72.28,1.266z M48.88,44.051
		H2.931V2.949H48.88V44.051z M70.068,41.973L51.937,31.946V15.053L70.068,5.027V41.973z"/>
</g>
</svg>
